# xmcd
#
# Track frame offsets:
#	150
#	14431
#	44573
#	59659
#	73767
#	82887
#	97586
#	135125
#	151735
#	170725
#	184729
#	192047
#	220273
#	231137
#	246754
#	262604
#	278645
#	291392
#	304396
#	316713
#	330070
#
# Disc length: 4503 seconds
#
# Revision: 1
# Processed by: cddbd v1.5.1PL0 Copyright (c) Steve Scherf et al.
# Submitted via: audiograbber 1.82.01
#
DISCID=16119515
DTITLE=Руски - "Блатные"
DYEAR=2000
DGENRE=Other
TTITLE0=Вам расскажу как на малине
TTITLE1=В натуре, ап!
TTITLE2=Самогончик
TTITLE3=Рыбацкая
TTITLE4=Воры - гуманисти
TTITLE5=На Молдованке музика играет
TTITLE6=Ты не богиня
TTITLE7=Карманница
TTITLE8=Малолетка
TTITLE9=Я Сэмэн, в законе вор
TTITLE10=Чифир варится на палках
TTITLE11=Стасик
TTITLE12=Люска - хулиганка
TTITLE13=Собрались урки
TTITLE14=Поворую - перестану
TTITLE15=Звенит звонок
TTITLE16=Я в Питере на Лиговке родился
TTITLE17=Мама, я летчика люблю
TTITLE18=Татуировочка
TTITLE19=Он вышел родом из народу
TTITLE20=Мадам Бонжа
EXTD=
EXTT0=
EXTT1=
EXTT2=
EXTT3=
EXTT4=
EXTT5=
EXTT6=
EXTT7=
EXTT8=
EXTT9=
EXTT10=
EXTT11=
EXTT12=
EXTT13=
EXTT14=
EXTT15=
EXTT16=
EXTT17=
EXTT18=
EXTT19=
EXTT20=
PLAYORDER=
